# xmcd
#
# Track frame offsets:
#	150
#	33390
#	54525
#	76585
#	132530
#	159300
#	175872
#	243072
#	315593
#
# Disc length: 4794 seconds
# Revision: 0
# Processed by: cddbd v1.5.2PL0 Copyright (c) Steve Scherf et al.
# Submitted via: dBpowerAMP V12.0
#
DISCID=6412b809
DTITLE=Johnny Winter - Good Love In San Diego
DYEAR=2014
DGENRE=Blues
TTITLE0=The Good Love
TTITLE1=Bad Luck Situation
TTITLE2=Stone County
TTITLE3=Silver Train
TTITLE4=Jumpin' Jack Flash
TTITLE5=Johnny B Goode
TTITLE6=Hey Joe
TTITLE7=Mississippi Blues
TTITLE8=Bony Moronie
EXTD=
EXTT0=
EXTT1=
EXTT2=
EXTT3=
EXTT4=
EXTT5=
EXTT6=
EXTT7=
EXTT8=
PLAYORDER=
